<svg width="24" height="24" viewBox="0 0 24 24" fill="none" xmlns="http://www.w3.org/2000/svg">
<path fill-rule="evenodd" clip-rule="evenodd" d="M18.319 14.433C19.566 12.8254 20.1536 10.803 19.9625 8.77748C19.7713 6.7519 18.8157 4.87524 17.2899 3.52927C15.7642 2.1833 13.783 1.46913 11.7494 1.53206C9.71581 1.59499 7.78257 2.43028 6.34298 3.86801C4.90213 5.30674 4.06411 7.24073 3.99968 9.27588C3.93524 11.311 4.64926 13.2942 5.99621 14.8211C7.34316 16.3481 9.22168 17.304 11.249 17.4941C13.2762 17.6842 15.2997 17.094 16.907 15.844L16.95 15.889L21.192 20.132C21.2849 20.2249 21.3952 20.2986 21.5166 20.3489C21.638 20.3992 21.7681 20.4251 21.8995 20.4251C22.0309 20.4251 22.161 20.3992 22.2824 20.3489C22.4038 20.2986 22.5141 20.2249 22.607 20.132C22.6999 20.0391 22.7736 19.9288 22.8239 19.8074C22.8742 19.686 22.9 19.5559 22.9 19.4245C22.9 19.2931 22.8742 19.163 22.8239 19.0416C22.7736 18.9202 22.6999 18.8099 22.607 18.717L18.364 14.475C18.3494 14.4606 18.3344 14.4466 18.319 14.433ZM16.243 5.28301C16.8076 5.83849 17.2566 6.50026 17.5642 7.23015C17.8717 7.96004 18.0318 8.7436 18.035 9.53563C18.0382 10.3277 17.8846 11.1125 17.583 11.8449C17.2814 12.5772 16.8377 13.2426 16.2777 13.8027C15.7176 14.3628 15.0522 14.8064 14.3198 15.108C13.5875 15.4096 12.8026 15.5632 12.0106 15.56C11.2186 15.5568 10.435 15.3968 9.70511 15.0892C8.97523 14.7816 8.31346 14.3326 7.75798 13.768C6.6479 12.6397 6.02863 11.1185 6.03508 9.53563C6.04152 7.95281 6.67316 6.43666 7.79239 5.31742C8.91162 4.19819 10.4278 3.56656 12.0106 3.56011C13.5934 3.55367 15.1147 4.17293 16.243 5.28301Z" fill="black"/>
</svg>
